<svg xmlns="http://www.w3.org/2000/svg">
  <defs>
    <symbol id="brand" viewBox="0 0 686 371">
      <path d="M363.118 319.682H165.294L130.088 370H1L267.559 2.67727H396.647L240.735 215.691H286L363.118 319.682Z" fill="black"/>
      <path d="M435.206 1H609.559L685 104.991H487.176L433.529 185.5L487.176 266.009H685L609.559 370H435.206L301.088 185.5L435.206 1Z" fill="black"/>
      <path d="M363.118 319.682H165.294L130.088 370H1L267.559 2.67727H396.647L240.735 215.691H286L363.118 319.682Z" stroke="black"/>
      <path d="M435.206 1H609.559L685 104.991H487.176L433.529 185.5L487.176 266.009H685L609.559 370H435.206L301.088 185.5L435.206 1Z" stroke="black"/>
    </symbol>
  </defs>
</svg>
